<?xml version="1.0" encoding="UTF-8"?>
<svg xmlns="http://www.w3.org/2000/svg" xmlns:xlink="http://www.w3.org/1999/xlink" width="110px" height="28px" viewBox="0 0 110 28" version="1.1">
<g id="surface1">
<path style=" stroke:none;fill-rule:evenodd;fill:rgb(100%,100%,100%);fill-opacity:1;" d="M 15.554688 27.816406 L 27.753906 15.925781 L 27.75 15.925781 C 32.558594 11.242188 34.511719 10.53125 43.675781 10.53125 L 80.234375 10.53125 L 90.75 0.183594 L 42.289062 0.183594 C 30.023438 0.183594 26.554688 1.355469 19.355469 8.515625 L 0 27.816406 Z M 43.894531 12.183594 L 78.664062 12.183594 L 69.019531 21.871094 L 44.078125 21.871094 C 39.503906 21.871094 38.492188 22.085938 36.226562 24.367188 L 32.792969 27.816406 L 18.367188 27.816406 L 29.03125 17.097656 C 33.222656 12.894531 34.664062 12.183594 43.894531 12.183594 Z M 110 0.183594 L 82.425781 27.816406 L 65.371094 27.816406 L 92.871094 0.183594 Z M 91.84375 26.941406 C 92.417969 27.527344 93.140625 27.816406 94.007812 27.816406 C 94.875 27.816406 95.589844 27.527344 96.152344 26.945312 C 96.714844 26.367188 96.996094 25.652344 96.996094 24.800781 C 96.996094 23.945312 96.714844 23.230469 96.148438 22.644531 C 95.578125 22.0625 94.863281 21.769531 93.996094 21.769531 C 93.128906 21.769531 92.410156 22.0625 91.839844 22.640625 C 91.269531 23.21875 90.980469 23.9375 90.980469 24.789062 C 90.980469 25.640625 91.269531 26.355469 91.84375 26.941406 Z M 92.203125 22.988281 C 92.683594 22.492188 93.277344 22.246094 93.988281 22.246094 C 94.703125 22.246094 95.300781 22.492188 95.777344 22.988281 C 96.253906 23.484375 96.496094 24.085938 96.496094 24.792969 C 96.496094 25.5 96.253906 26.101562 95.777344 26.589844 C 95.296875 27.085938 94.703125 27.328125 93.988281 27.328125 C 93.277344 27.328125 92.679688 27.082031 92.203125 26.585938 C 91.722656 26.089844 91.484375 25.492188 91.484375 24.789062 C 91.484375 24.082031 91.722656 23.484375 92.203125 22.988281 Z M 93.402344 26.476562 L 93.402344 25.289062 L 93.40625 25.292969 L 94.078125 25.292969 L 94.648438 26.480469 L 95.34375 26.480469 L 94.71875 25.207031 C 94.929688 25.109375 95.078125 24.984375 95.167969 24.824219 C 95.253906 24.664062 95.300781 24.425781 95.300781 24.101562 C 95.300781 23.773438 95.191406 23.53125 94.972656 23.367188 C 94.753906 23.207031 94.429688 23.125 93.996094 23.125 L 92.742188 23.125 L 92.742188 26.476562 Z M 93.390625 24.769531 L 93.390625 23.644531 L 93.9375 23.644531 C 94.410156 23.644531 94.644531 23.832031 94.644531 24.207031 C 94.644531 24.40625 94.597656 24.550781 94.507812 24.636719 C 94.417969 24.726562 94.269531 24.769531 94.066406 24.769531 Z M 93.390625 24.769531 "/>
</g>
</svg>
